<?xml version="1.0" standalone="no"?>
<!DOCTYPE svg PUBLIC "-//W3C//DTD SVG 20010904//EN"
 "http://www.w3.org/TR/2001/REC-SVG-20010904/DTD/svg10.dtd">
<svg version="1.0" xmlns="http://www.w3.org/2000/svg"
 width="259.000000pt" height="259.000000pt" viewBox="0 0 259.000000 259.000000"
 preserveAspectRatio="xMidYMid meet">
<metadata>
Created by potrace 1.11, written by Peter Selinger 2001-2013
</metadata>
<g transform="translate(.000000,259.000000) scale(.100000,-.100000)"
fill="#000000" stroke="none">
<path d="M0 1300 l0 -1290 1295 0 1295 0 0 1290 0 1290 -1295 0 -1295 0 0
-1290z m588 631 l36 -38 37 39 37 39 98 -3 99 -3 0 -155 0 -155 -88 -3 -89 -3
4 -123 c3 -135 8 -147 72 -187 l28 -17 -31 -17 c-61 -31 -71 -62 -71 -228 l0
-147 178 2 177 3 3 58 3 58 57 -3 57 -3 3 -213 c2 -187 0 -213 -14 -219 -22
-8 -92 15 -104 35 -27 48 -27 48 -63 7 l-35 -40 -130 -3 c-143 -4 -176 5 -209
54 l-16 26 -33 -36 c-39 -43 -57 -48 -159 -44 l-80 3 -3 158 -3 157 91 0 90 0
0 148 c0 165 -10 196 -71 227 l-31 16 33 18 c55 30 69 70 69 198 l0 112 -87 3
-88 3 -3 145 c-1 79 0 150 2 157 4 9 32 13 102 13 l97 0 35 -39z m1062 0 l36
-38 36 39 35 39 99 -3 99 -3 0 -155 0 -155 -87 -3 -88 -3 0 -107 c0 -122 14
-162 68 -198 l32 -22 -34 -21 c-56 -35 -66 -70 -66 -230 l0 -141 180 0 180 0
0 60 0 60 60 0 60 0 -2 -217 -3 -218 -39 1 c-32 1 -46 9 -73 38 l-33 36 -34
-38 -34 -37 -127 -3 c-142 -4 -173 4 -207 50 l-21 30 -32 -38 -33 -39 -103 0
-104 0 -3 158 -3 157 91 0 90 0 0 148 c0 165 -6 184 -62 221 l-37 24 31 17
c54 29 68 69 68 197 l0 112 -87 3 -88 3 -3 145 c-1 79 0 150 2 157 4 9 32 13
102 13 l97 0 37 -39z"/>
</g>
</svg>
